{"asset":{"version":"2.0","generator":"babylon.js glTF exporter for 3ds max 2018 v1.2.18","copyright":"2017 (c) BabylonJS"},"extensionsUsed":["KHR_lights"],"scene":0,"scenes":[{"nodes":[0,1,2,3,4],"extensions":{}}],"nodes":[{"mesh":0,"translation":[0.0,0.0,0.0],"rotation":[0.0,0.0,0.0,1.0],"scale":[67.6226044,67.6226044,67.6226044],"name":"turret-01"},{"mesh":1,"translation":[0.139251232,0.0,-0.5767412],"rotation":[0.0,0.0,0.0,1.0],"scale":[1.0,1.0,1.0],"name":"Plane001"},{"mesh":2,"translation":[-8.129259,4.898403,1.00477827],"rotation":[-1.0,0.0,0.0,-7.54979E-08],"scale":[1.0,1.0,1.0],"name":"Box001"},{"translation":[0.171194538,3.61372042,208.920227],"rotation":[0.0,0.0,0.0,1.0],"scale":[1.0,1.0,1.0],"name":"FDirect001","extensions":{"KHR_lights":{"light":0}}},{"camera":0,"translation":[-1.61698151,5.129292,52.7544823],"rotation":[-0.685183048,0.0,0.0,-0.7283709],"scale":[1.0,1.0,1.0],"name":"Camera001"}],"cameras":[{"perspective":{"yfov":0.6024157,"zfar":10000.0,"znear":0.1},"type":"perspective","name":"Camera001"}],"meshes":[{"primitives":[{"attributes":{"POSITION":1,"NORMAL":2,"TEXCOORD_0":3},"indices":0,"mode":4,"material":0}],"name":"turret-01"},{"primitives":[{"attributes":{"POSITION":5,"NORMAL":6,"TEXCOORD_0":7},"indices":4,"mode":4,"material":1}],"name":"Plane001"},{"primitives":[{"attributes":{"POSITION":9,"NORMAL":10,"TEXCOORD_0":11},"indices":8,"mode":4,"material":2}],"name":"Box001"}],"accessors":[{"bufferView":0,"componentType":5123,"count":1740,"type":"SCALAR","name":"accessorIndices"},{"bufferView":1,"componentType":5126,"count":1740,"max":[0.07291642,0.112000681,0.06377025],"min":[-0.0729164258,-0.00371699664,-0.05789558],"type":"VEC3","name":"accessorPositions"},{"bufferView":1,"byteOffset":20880,"componentType":5126,"count":1740,"type":"VEC3","name":"accessorNormals"},{"bufferView":2,"componentType":5126,"count":1740,"type":"VEC2","name":"accessorUVs"},{"bufferView":0,"byteOffset":3480,"componentType":5123,"count":96,"type":"SCALAR","name":"accessorIndices"},{"bufferView":1,"byteOffset":41760,"componentType":5126,"count":96,"max":[11.1834507,0.0,9.925313],"min":[-11.1834507,0.0,-9.925313],"type":"VEC3","name":"accessorPositions"},{"bufferView":1,"byteOffset":42912,"componentType":5126,"count":96,"type":"VEC3","name":"accessorNormals"},{"bufferView":2,"byteOffset":13920,"componentType":5126,"count":96,"type":"VEC2","name":"accessorUVs"},{"bufferView":0,"byteOffset":3672,"componentType":5123,"count":2412,"type":"SCALAR","name":"accessorIndices"},{"bufferView":1,"byteOffset":44064,"componentType":5126,"count":2412,"max":[0.4992323,4.899364,0.500000358],"min":[-0.4992323,-0.07761717,-0.499999762],"type":"VEC3","name":"accessorPositions"},{"bufferView":1,"byteOffset":73008,"componentType":5126,"count":2412,"type":"VEC3","name":"accessorNormals"},{"bufferView":2,"byteOffset":14688,"componentType":5126,"count":2412,"type":"VEC2","name":"accessorUVs"},{"bufferView":3,"componentType":5126,"count":80,"max":[3.33333325],"min":[0.0],"type":"SCALAR","name":"accessorAnimationInput"},{"bufferView":4,"componentType":5126,"count":80,"type":"VEC3","name":"accessorAnimationPositions"}],"bufferViews":[{"buffer":0,"byteLength":8496,"name":"bufferViewScalar"},{"buffer":0,"byteOffset":8496,"byteLength":101952,"byteStride":12,"name":"bufferViewFloatVec3"},{"buffer":0,"byteOffset":110448,"byteLength":33984,"byteStride":8,"name":"bufferViewFloatVec2"},{"buffer":0,"byteOffset":144432,"byteLength":320,"name":"bufferViewAnimationFloatScalar"},{"buffer":0,"byteOffset":144752,"byteLength":960,"name":"bufferViewAnimationFloatVec3"}],"buffers":[{"uri":"test.bin","byteLength":145712}],"materials":[{"pbrMetallicRoughness":{"baseColorFactor":[1.0,1.0,1.0,1.0],"baseColorTexture":{"index":0,"texCoord":0},"metallicFactor":0.0,"roughnessFactor":0.9},"emissiveFactor":[0.0,0.0,0.0],"alphaMode":"OPAQUE","name":"01 - Default"},{"pbrMetallicRoughness":{"baseColorFactor":[0.759804,1.0,0.0,1.0],"metallicFactor":0.0,"roughnessFactor":0.9},"emissiveFactor":[0.0,0.0,0.0],"alphaMode":"OPAQUE","name":"03 - Default"},{"pbrMetallicRoughness":{"baseColorFactor":[1.0,1.0,1.0,1.0],"baseColorTexture":{"index":1,"texCoord":0},"metallicFactor":0.0,"roughnessFactor":0.9},"emissiveFactor":[0.0,0.0,0.0],"alphaMode":"BLEND","name":"box"}],"textures":[{"sampler":0,"source":0,"name":"01 - Default_baseColor.jpg"},{"sampler":1,"source":1,"name":"box_baseColor.png"}],"images":[{"uri":"01 - Default_baseColor.jpg"},{"uri":"box_baseColor.png"}],"samplers":[{"magFilter":9729,"minFilter":9987,"wrapS":10497,"wrapT":10497},{"magFilter":9729,"minFilter":9987,"wrapS":10497,"wrapT":10497}],"animations":[{"channels":[{"sampler":0,"target":{"node":0,"path":"translation"}}],"samplers":[{"input":12,"interpolation":"LINEAR","output":13}],"name":"All Animations"}],"extensions":{"KHR_lights":{"lights":[{"color":[1.0,1.0,1.0],"intensity":3.0,"type":"directional"}]}}}